<svg xmlns="http://www.w3.org/2000/svg" enable-background="new 0 0 512 512" height="512" width="512"><rect id="backgroundrect" width="100%" height="100%" x="0" y="0" fill="none" stroke="none"/><g class="currentLayer" style=""><title>Layer 1</title><g id="svg_1" class="selected" fill="#ffffff" fill-opacity="1"><path d="m90 31h-90v30h60v420h30v-60h422v-330h-422zm256 120c57.891 0 105 47.109 105 105s-47.109 105-105 105-105-47.109-105-105 47.109-105 105-105zm-165 0h30v30h-30zm0 60h30v30h-30zm0 60h30v30h-30zm0 60h30v30h-30zm-60-180h30v30h-30zm0 60h30v30h-30zm0 60h30v30h-30zm0 60h30v30h-30z" id="svg_2" fill="#ffffff" fill-opacity="1"/><path d="m0 121h30v120h-30z" id="svg_3" fill="#ffffff" fill-opacity="1"/><path d="m0 271h30v120h-30z" id="svg_4" fill="#ffffff" fill-opacity="1"/><path d="m310.37 283.171c-5.002.707-9.811 1.144-14.247 1.144-7.656 0-14.306-1.051-20.257-2.487 9.763 26.402 33.854 45.591 62.871 48.437 2.906-5.374 6.359-15.099 5.284-29.465-13.741-.611-25.804-7.37-33.651-17.629z" id="svg_5" fill="#ffffff" fill-opacity="1"/><circle cx="346" cy="256" r="15" id="svg_6" fill="#ffffff" fill-opacity="1"/><path d="m381.784 229.016c13.411-1.851 25.01-1.201 34.307 1.016-9.792-26.325-33.845-45.445-62.8-48.294-2.946 5.436-6.379 15.152-5.31 29.462 13.825.615 25.963 7.446 33.803 17.816z" id="svg_7" fill="#ffffff" fill-opacity="1"/><path d="m301.198 254.044c.606-13.83 7.438-25.975 17.809-33.821-1.859-13.411-1.21-25.01 1.011-34.31-26.325 9.8-45.443 33.858-48.283 62.82 5.43 2.962 15.135 6.406 29.463 5.311z" id="svg_8" fill="#ffffff" fill-opacity="1"/><path d="m390.799 257.985c-.617 13.821-7.441 25.952-17.805 33.792 1.859 13.411 1.21 25.01-1.011 34.31 26.32-9.796 45.432-33.849 48.279-62.802-5.431-2.944-15.137-6.371-29.463-5.3z" id="svg_9" fill="#ffffff" fill-opacity="1"/><path d="m151 451h30v30h-30z" id="svg_10" fill="#ffffff" fill-opacity="1"/><path d="m211 451h30v30h-30z" id="svg_11" fill="#ffffff" fill-opacity="1"/><path d="m271 451h30v30h-30z" id="svg_12" fill="#ffffff" fill-opacity="1"/><path d="m331 451h30v30h-30z" id="svg_13" fill="#ffffff" fill-opacity="1"/><path d="m391 451h30v30h-30z" id="svg_14" fill="#ffffff" fill-opacity="1"/><path d="m451 451h30v30h-30z" id="svg_15" fill="#ffffff" fill-opacity="1"/></g></g></svg>